STARTFONT 2.1
COMMENT Recovered from ar1.1:HL12 1 (Xerox Alto CONVERT font source (AL) recovered from MIT CADR AR1 ARC!!!)
FONT MIT-CADR-HL12-AL-AR1
SIZE 14 72 72
FONTBOUNDINGBOX 13 14 0 -4
STARTPROPERTIES 2
FONT_ASCENT 10
FONT_DESCENT 4
ENDPROPERTIES
CHARS 128
STARTCHAR C0000
ENCODING -1 0
SWIDTH 0 0
DWIDTH 0 0
BBX 0 14 0 -4
BITMAP
00
00
00
00
00
00
00
00
00
00
00
00
00
00
ENDCHAR
STARTCHAR C0001
ENCODING -1 1
SWIDTH 0 0
DWIDTH 0 0
BBX 0 14 0 -4
BITMAP
00
00
00
00
00
00
00
00
00
00
00
00
00
00
ENDCHAR
STARTCHAR C0002
ENCODING -1 2
SWIDTH 0 0
DWIDTH 0 0
BBX 0 14 0 -4
BITMAP
00
00
00
00
00
00
00
00
00
00
00
00
00
00
ENDCHAR
STARTCHAR C0003
ENCODING -1 3
SWIDTH 0 0
DWIDTH 0 0
BBX 0 14 0 -4
BITMAP
00
00
00
00
00
00
00
00
00
00
00
00
00
00
ENDCHAR
STARTCHAR C0004
ENCODING -1 4
SWIDTH 0 0
DWIDTH 0 0
BBX 0 14 0 -4
BITMAP
00
00
00
00
00
00
00
00
00
00
00
00
00
00
ENDCHAR
STARTCHAR C0005
ENCODING -1 5
SWIDTH 0 0
DWIDTH 0 0
BBX 0 14 0 -4
BITMAP
00
00
00
00
00
00
00
00
00
00
00
00
00
00
ENDCHAR
STARTCHAR C0006
ENCODING -1 6
SWIDTH 0 0
DWIDTH 0 0
BBX 0 14 0 -4
BITMAP
00
00
00
00
00
00
00
00
00
00
00
00
00
00
ENDCHAR
STARTCHAR C0007
ENCODING -1 7
SWIDTH 0 0
DWIDTH 0 0
BBX 0 14 0 -4
BITMAP
00
00
00
00
00
00
00
00
00
00
00
00
00
00
ENDCHAR
STARTCHAR C0008
ENCODING -1 8
SWIDTH 0 0
DWIDTH 0 0
BBX 0 14 0 -4
BITMAP
00
00
00
00
00
00
00
00
00
00
00
00
00
00
ENDCHAR
STARTCHAR C0009
ENCODING -1 9
SWIDTH 0 0
DWIDTH 0 0
BBX 0 14 0 -4
BITMAP
00
00
00
00
00
00
00
00
00
00
00
00
00
00
ENDCHAR
STARTCHAR C000A
ENCODING -1 10
SWIDTH 0 0
DWIDTH 0 0
BBX 0 14 0 -4
BITMAP
00
00
00
00
00
00
00
00
00
00
00
00
00
00
ENDCHAR
STARTCHAR C000B
ENCODING -1 11
SWIDTH 0 0
DWIDTH 0 0
BBX 0 14 0 -4
BITMAP
00
00
00
00
00
00
00
00
00
00
00
00
00
00
ENDCHAR
STARTCHAR C000C
ENCODING -1 12
SWIDTH 0 0
DWIDTH 0 0
BBX 0 14 0 -4
BITMAP
00
00
00
00
00
00
00
00
00
00
00
00
00
00
ENDCHAR
STARTCHAR C000D
ENCODING -1 13
SWIDTH 0 0
DWIDTH 0 0
BBX 0 14 0 -4
BITMAP
00
00
00
00
00
00
00
00
00
00
00
00
00
00
ENDCHAR
STARTCHAR C000E
ENCODING -1 14
SWIDTH 0 0
DWIDTH 0 0
BBX 0 14 0 -4
BITMAP
00
00
00
00
00
00
00
00
00
00
00
00
00
00
ENDCHAR
STARTCHAR C000F
ENCODING -1 15
SWIDTH 0 0
DWIDTH 0 0
BBX 0 14 0 -4
BITMAP
00
00
00
00
00
00
00
00
00
00
00
00
00
00
ENDCHAR
STARTCHAR C0010
ENCODING -1 16
SWIDTH 0 0
DWIDTH 0 0
BBX 0 14 0 -4
BITMAP
00
00
00
00
00
00
00
00
00
00
00
00
00
00
ENDCHAR
STARTCHAR C0011
ENCODING -1 17
SWIDTH 0 0
DWIDTH 0 0
BBX 0 14 0 -4
BITMAP
00
00
00
00
00
00
00
00
00
00
00
00
00
00
ENDCHAR
STARTCHAR C0012
ENCODING -1 18
SWIDTH 0 0
DWIDTH 0 0
BBX 0 14 0 -4
BITMAP
00
00
00
00
00
00
00
00
00
00
00
00
00
00
ENDCHAR
STARTCHAR C0013
ENCODING -1 19
SWIDTH 0 0
DWIDTH 0 0
BBX 0 14 0 -4
BITMAP
00
00
00
00
00
00
00
00
00
00
00
00
00
00
ENDCHAR
STARTCHAR C0014
ENCODING -1 20
SWIDTH 0 0
DWIDTH 0 0
BBX 0 14 0 -4
BITMAP
00
00
00
00
00
00
00
00
00
00
00
00
00
00
ENDCHAR
STARTCHAR C0015
ENCODING -1 21
SWIDTH 0 0
DWIDTH 0 0
BBX 0 14 0 -4
BITMAP
00
00
00
00
00
00
00
00
00
00
00
00
00
00
ENDCHAR
STARTCHAR C0016
ENCODING -1 22
SWIDTH 0 0
DWIDTH 0 0
BBX 0 14 0 -4
BITMAP
00
00
00
00
00
00
00
00
00
00
00
00
00
00
ENDCHAR
STARTCHAR C0017
ENCODING -1 23
SWIDTH 0 0
DWIDTH 0 0
BBX 0 14 0 -4
BITMAP
00
00
00
00
00
00
00
00
00
00
00
00
00
00
ENDCHAR
STARTCHAR C0018
ENCODING -1 24
SWIDTH 0 0
DWIDTH 0 0
BBX 13 14 0 -4
BITMAP
0000
0000
0000
0000
0000
0000
0000
0000
0000
0000
0000
0000
0000
FFF8
ENDCHAR
STARTCHAR C0019
ENCODING -1 25
SWIDTH 0 0
DWIDTH 0 0
BBX 0 14 0 -4
BITMAP
00
00
00
00
00
00
00
00
00
00
00
00
00
00
ENDCHAR
STARTCHAR C001A
ENCODING -1 26
SWIDTH 0 0
DWIDTH 0 0
BBX 0 14 0 -4
BITMAP
00
00
00
00
00
00
00
00
00
00
00
00
00
00
ENDCHAR
STARTCHAR C001B
ENCODING -1 27
SWIDTH 0 0
DWIDTH 0 0
BBX 0 14 0 -4
BITMAP
00
00
00
00
00
00
00
00
00
00
00
00
00
00
ENDCHAR
STARTCHAR C001C
ENCODING -1 28
SWIDTH 0 0
DWIDTH 0 0
BBX 0 14 0 -4
BITMAP
00
00
00
00
00
00
00
00
00
00
00
00
00
00
ENDCHAR
STARTCHAR C001D
ENCODING -1 29
SWIDTH 0 0
DWIDTH 0 0
BBX 0 14 0 -4
BITMAP
00
00
00
00
00
00
00
00
00
00
00
00
00
00
ENDCHAR
STARTCHAR C001E
ENCODING -1 30
SWIDTH 0 0
DWIDTH 0 0
BBX 0 14 0 -4
BITMAP
00
00
00
00
00
00
00
00
00
00
00
00
00
00
ENDCHAR
STARTCHAR C001F
ENCODING -1 31
SWIDTH 0 0
DWIDTH 0 0
BBX 0 14 0 -4
BITMAP
00
00
00
00
00
00
00
00
00
00
00
00
00
00
ENDCHAR
STARTCHAR C0020
ENCODING -1 32
SWIDTH 429 0
DWIDTH 6 0
BBX 6 14 0 -4
BITMAP
00
00
00
00
00
00
00
00
00
00
00
00
00
00
ENDCHAR
STARTCHAR C0021
ENCODING -1 33
SWIDTH 214 0
DWIDTH 3 0
BBX 3 14 0 -4
BITMAP
00
40
40
40
40
40
40
40
00
40
40
00
00
00
ENDCHAR
STARTCHAR C0022
ENCODING -1 34
SWIDTH 357 0
DWIDTH 5 0
BBX 5 14 0 -4
BITMAP
00
50
50
50
50
00
00
00
00
00
00
00
00
00
ENDCHAR
STARTCHAR C0023
ENCODING -1 35
SWIDTH 786 0
DWIDTH 11 0
BBX 11 14 0 -4
BITMAP
0000
0480
0480
0900
3FC0
0900
1200
7F80
1200
2400
2400
0000
0000
0000
ENDCHAR
STARTCHAR C0024
ENCODING -1 36
SWIDTH 643 0
DWIDTH 9 0
BBX 9 14 0 -4
BITMAP
0800
3E00
4900
4800
4800
3E00
0900
0900
4900
4900
3E00
0800
0000
0000
ENDCHAR
STARTCHAR C0025
ENCODING -1 37
SWIDTH 786 0
DWIDTH 11 0
BBX 11 14 0 -4
BITMAP
0000
3100
4900
4A00
3200
0400
0400
0980
0A40
1240
1180
0000
0000
0000
ENDCHAR
STARTCHAR C0026
ENCODING -1 38
SWIDTH 714 0
DWIDTH 10 0
BBX 10 14 0 -4
BITMAP
0000
1C00
2200
2200
1400
1800
2900
4500
4200
4300
3C80
0000
0000
0000
ENDCHAR
STARTCHAR C0027
ENCODING -1 39
SWIDTH 214 0
DWIDTH 3 0
BBX 3 14 0 -4
BITMAP
00
40
40
40
40
00
00
00
00
00
00
00
00
00
ENDCHAR
STARTCHAR C0028
ENCODING -1 40
SWIDTH 357 0
DWIDTH 5 0
BBX 5 14 0 -4
BITMAP
00
10
20
20
40
40
40
40
40
40
40
20
20
10
ENDCHAR
STARTCHAR C0029
ENCODING -1 41
SWIDTH 357 0
DWIDTH 5 0
BBX 5 14 0 -4
BITMAP
00
40
20
20
10
10
10
10
10
10
10
20
20
40
ENDCHAR
STARTCHAR C002A
ENCODING -1 42
SWIDTH 500 0
DWIDTH 7 0
BBX 7 14 0 -4
BITMAP
00
10
54
38
54
10
00
00
00
00
00
00
00
00
ENDCHAR
STARTCHAR C002B
ENCODING -1 43
SWIDTH 643 0
DWIDTH 9 0
BBX 9 14 0 -4
BITMAP
0000
0000
0000
0800
0800
0800
7F00
0800
0800
0800
0000
0000
0000
0000
ENDCHAR
STARTCHAR C002C
ENCODING -1 44
SWIDTH 286 0
DWIDTH 4 0
BBX 4 14 0 -4
BITMAP
00
00
00
00
00
00
00
00
00
60
20
20
40
00
ENDCHAR
STARTCHAR C002D
ENCODING -1 45
SWIDTH 571 0
DWIDTH 8 0
BBX 8 14 0 -4
BITMAP
00
00
00
00
00
00
7E
00
00
00
00
00
00
00
ENDCHAR
STARTCHAR C002E
ENCODING -1 46
SWIDTH 214 0
DWIDTH 3 0
BBX 3 14 0 -4
BITMAP
00
00
00
00
00
00
00
00
00
40
40
00
00
00
ENDCHAR
STARTCHAR C002F
ENCODING -1 47
SWIDTH 500 0
DWIDTH 7 0
BBX 7 14 0 -4
BITMAP
00
04
04
08
08
10
10
20
20
40
40
00
00
00
ENDCHAR
STARTCHAR C0030
ENCODING -1 48
SWIDTH 643 0
DWIDTH 9 0
BBX 9 14 0 -4
BITMAP
0000
1C00
2200
4100
4100
4100
4100
4100
4100
2200
1C00
0000
0000
0000
ENDCHAR
STARTCHAR C0031
ENCODING -1 49
SWIDTH 643 0
DWIDTH 9 0
BBX 9 14 0 -4
BITMAP
0000
0400
0C00
3400
0400
0400
0400
0400
0400
0400
0400
0000
0000
0000
ENDCHAR
STARTCHAR C0032
ENCODING -1 50
SWIDTH 643 0
DWIDTH 9 0
BBX 9 14 0 -4
BITMAP
0000
1E00
2100
2100
0100
0200
0400
0800
1000
2000
7F00
0000
0000
0000
ENDCHAR
STARTCHAR C0033
ENCODING -1 51
SWIDTH 643 0
DWIDTH 9 0
BBX 9 14 0 -4
BITMAP
0000
1C00
2200
2200
0200
0C00
0200
4100
4100
2200
1C00
0000
0000
0000
ENDCHAR
STARTCHAR C0034
ENCODING -1 52
SWIDTH 643 0
DWIDTH 9 0
BBX 9 14 0 -4
BITMAP
0000
0600
0A00
1200
1200
2200
4200
7F00
0200
0200
0200
0000
0000
0000
ENDCHAR
STARTCHAR C0035
ENCODING -1 53
SWIDTH 643 0
DWIDTH 9 0
BBX 9 14 0 -4
BITMAP
0000
3E00
2000
4000
7C00
4200
0100
0100
0100
4200
3C00
0000
0000
0000
ENDCHAR
STARTCHAR C0036
ENCODING -1 54
SWIDTH 643 0
DWIDTH 9 0
BBX 9 14 0 -4
BITMAP
0000
1E00
2100
4000
5C00
6200
4100
4100
4100
2200
1C00
0000
0000
0000
ENDCHAR
STARTCHAR C0037
ENCODING -1 55
SWIDTH 643 0
DWIDTH 9 0
BBX 9 14 0 -4
BITMAP
0000
7F00
0100
0100
0200
0400
0800
0800
1000
1000
1000
0000
0000
0000
ENDCHAR
STARTCHAR C0038
ENCODING -1 56
SWIDTH 643 0
DWIDTH 9 0
BBX 9 14 0 -4
BITMAP
0000
1C00
2200
2200
2200
1C00
2200
4100
4100
2200
1C00
0000
0000
0000
ENDCHAR
STARTCHAR C0039
ENCODING -1 57
SWIDTH 643 0
DWIDTH 9 0
BBX 9 14 0 -4
BITMAP
0000
1C00
2200
4100
4100
4100
2300
1D00
0100
4200
3C00
0000
0000
0000
ENDCHAR
STARTCHAR C003A
ENCODING -1 58
SWIDTH 214 0
DWIDTH 3 0
BBX 3 14 0 -4
BITMAP
00
00
00
00
40
40
00
00
00
40
40
00
00
00
ENDCHAR
STARTCHAR C003B
ENCODING -1 59
SWIDTH 286 0
DWIDTH 4 0
BBX 4 14 0 -4
BITMAP
00
00
00
00
20
20
00
00
00
60
20
20
40
00
ENDCHAR
STARTCHAR C003C
ENCODING -1 60
SWIDTH 500 0
DWIDTH 7 0
BBX 7 14 0 -4
BITMAP
00
04
08
10
20
40
40
20
10
08
04
00
00
00
ENDCHAR
STARTCHAR C003D
ENCODING -1 61
SWIDTH 500 0
DWIDTH 7 0
BBX 7 14 0 -4
BITMAP
00
00
00
00
00
00
7C
00
7C
00
00
00
00
00
ENDCHAR
STARTCHAR C003E
ENCODING -1 62
SWIDTH 500 0
DWIDTH 7 0
BBX 7 14 0 -4
BITMAP
00
40
20
10
08
04
04
08
10
20
40
00
00
00
ENDCHAR
STARTCHAR C003F
ENCODING -1 63
SWIDTH 571 0
DWIDTH 8 0
BBX 8 14 0 -4
BITMAP
00
3C
42
42
02
04
08
08
00
08
08
00
00
00
ENDCHAR
STARTCHAR C0040
ENCODING -1 64
SWIDTH 857 0
DWIDTH 12 0
BBX 12 14 0 -4
BITMAP
0000
0F00
30C0
2640
4920
4920
4920
4940
2680
3000
0FC0
0000
0000
0000
ENDCHAR
STARTCHAR C0041
ENCODING -1 65
SWIDTH 714 0
DWIDTH 10 0
BBX 10 14 0 -4
BITMAP
0000
0C00
0C00
1200
1200
1200
2100
3F00
2100
4080
4080
0000
0000
0000
ENDCHAR
STARTCHAR C0042
ENCODING -1 66
SWIDTH 643 0
DWIDTH 9 0
BBX 9 14 0 -4
BITMAP
0000
7E00
4100
4100
4100
7E00
4100
4100
4100
4100
7E00
0000
0000
0000
ENDCHAR
STARTCHAR C0043
ENCODING -1 67
SWIDTH 786 0
DWIDTH 11 0
BBX 11 14 0 -4
BITMAP
0000
0F00
3080
2040
4040
4000
4000
4040
2040
3080
0F00
0000
0000
0000
ENDCHAR
STARTCHAR C0044
ENCODING -1 68
SWIDTH 714 0
DWIDTH 10 0
BBX 10 14 0 -4
BITMAP
0000
7E00
4100
4080
4080
4080
4080
4080
4080
4100
7E00
0000
0000
0000
ENDCHAR
STARTCHAR C0045
ENCODING -1 69
SWIDTH 643 0
DWIDTH 9 0
BBX 9 14 0 -4
BITMAP
0000
7F00
4000
4000
4000
7E00
4000
4000
4000
4000
7F00
0000
0000
0000
ENDCHAR
STARTCHAR C0046
ENCODING -1 70
SWIDTH 571 0
DWIDTH 8 0
BBX 8 14 0 -4
BITMAP
00
7F
40
40
40
7E
40
40
40
40
40
00
00
00
ENDCHAR
STARTCHAR C0047
ENCODING -1 71
SWIDTH 786 0
DWIDTH 11 0
BBX 11 14 0 -4
BITMAP
0000
0F00
3080
2040
4040
4000
47C0
4040
2040
30C0
0F40
0000
0000
0000
ENDCHAR
STARTCHAR C0048
ENCODING -1 72
SWIDTH 714 0
DWIDTH 10 0
BBX 10 14 0 -4
BITMAP
0000
4080
4080
4080
4080
7F80
4080
4080
4080
4080
4080
0000
0000
0000
ENDCHAR
STARTCHAR C0049
ENCODING -1 73
SWIDTH 214 0
DWIDTH 3 0
BBX 3 14 0 -4
BITMAP
00
40
40
40
40
40
40
40
40
40
40
00
00
00
ENDCHAR
STARTCHAR C004A
ENCODING -1 74
SWIDTH 500 0
DWIDTH 7 0
BBX 7 14 0 -4
BITMAP
00
04
04
04
04
04
04
04
44
44
38
00
00
00
ENDCHAR
STARTCHAR C004B
ENCODING -1 75
SWIDTH 643 0
DWIDTH 9 0
BBX 9 14 0 -4
BITMAP
0000
4100
4200
4400
4800
5000
6800
4400
4200
4100
4080
0000
0000
0000
ENDCHAR
STARTCHAR C004C
ENCODING -1 76
SWIDTH 571 0
DWIDTH 8 0
BBX 8 14 0 -4
BITMAP
00
40
40
40
40
40
40
40
40
40
7F
00
00
00
ENDCHAR
STARTCHAR C004D
ENCODING -1 77
SWIDTH 857 0
DWIDTH 12 0
BBX 12 14 0 -4
BITMAP
0000
6060
6060
50A0
50A0
50A0
4920
4920
4920
4620
4620
0000
0000
0000
ENDCHAR
STARTCHAR C004E
ENCODING -1 78
SWIDTH 714 0
DWIDTH 10 0
BBX 10 14 0 -4
BITMAP
0000
6080
5080
5080
4880
4880
4480
4480
4280
4280
4180
0000
0000
0000
ENDCHAR
STARTCHAR C004F
ENCODING -1 79
SWIDTH 857 0
DWIDTH 12 0
BBX 12 14 0 -4
BITMAP
0000
0F00
30C0
2040
4020
4020
4020
4020
2040
30C0
0F00
0000
0000
0000
ENDCHAR
STARTCHAR C0050
ENCODING -1 80
SWIDTH 571 0
DWIDTH 8 0
BBX 8 14 0 -4
BITMAP
00
7E
41
41
41
41
7E
40
40
40
40
00
00
00
ENDCHAR
STARTCHAR C0051
ENCODING -1 81
SWIDTH 857 0
DWIDTH 12 0
BBX 12 14 0 -4
BITMAP
0000
0F00
30C0
2040
4020
4020
4020
4020
2240
31C0
0F80
0040
0020
0000
ENDCHAR
STARTCHAR C0052
ENCODING -1 82
SWIDTH 643 0
DWIDTH 9 0
BBX 9 14 0 -4
BITMAP
0000
7E00
4100
4100
4100
7E00
4100
4100
4100
4100
4100
0000
0000
0000
ENDCHAR
STARTCHAR C0053
ENCODING -1 83
SWIDTH 714 0
DWIDTH 10 0
BBX 10 14 0 -4
BITMAP
0000
1F00
2080
2080
2000
1C00
0300
4080
4080
2080
1F00
0000
0000
0000
ENDCHAR
STARTCHAR C0054
ENCODING -1 84
SWIDTH 786 0
DWIDTH 11 0
BBX 11 14 0 -4
BITMAP
0000
7FC0
0400
0400
0400
0400
0400
0400
0400
0400
0400
0000
0000
0000
ENDCHAR
STARTCHAR C0055
ENCODING -1 85
SWIDTH 714 0
DWIDTH 10 0
BBX 10 14 0 -4
BITMAP
0000
4080
4080
4080
4080
4080
4080
4080
4080
2100
1E00
0000
0000
0000
ENDCHAR
STARTCHAR C0056
ENCODING -1 86
SWIDTH 714 0
DWIDTH 10 0
BBX 10 14 0 -4
BITMAP
0000
4080
4080
2100
2100
2100
1200
1200
1200
0C00
0C00
0000
0000
0000
ENDCHAR
STARTCHAR C0057
ENCODING -1 87
SWIDTH 929 0
DWIDTH 13 0
BBX 13 14 0 -4
BITMAP
0000
4210
4210
4510
2520
2520
28A0
28A0
1040
1040
1040
0000
0000
0000
ENDCHAR
STARTCHAR C0058
ENCODING -1 88
SWIDTH 786 0
DWIDTH 11 0
BBX 11 14 0 -4
BITMAP
0000
2080
2080
1100
0A00
0400
0A00
1100
1100
2080
4040
0000
0000
0000
ENDCHAR
STARTCHAR C0059
ENCODING -1 89
SWIDTH 786 0
DWIDTH 11 0
BBX 11 14 0 -4
BITMAP
0000
4040
2080
2080
1100
0A00
0A00
0400
0400
0400
0400
0000
0000
0000
ENDCHAR
STARTCHAR C005A
ENCODING -1 90
SWIDTH 714 0
DWIDTH 10 0
BBX 10 14 0 -4
BITMAP
0000
7F80
0080
0100
0200
0400
0800
1000
2000
4000
7F80
0000
0000
0000
ENDCHAR
STARTCHAR C005B
ENCODING -1 91
SWIDTH 429 0
DWIDTH 6 0
BBX 6 14 0 -4
BITMAP
00
78
40
40
40
40
40
40
40
40
40
40
40
78
ENDCHAR
STARTCHAR C005C
ENCODING -1 92
SWIDTH 500 0
DWIDTH 7 0
BBX 7 14 0 -4
BITMAP
00
40
40
20
20
10
10
08
08
04
04
00
00
00
ENDCHAR
STARTCHAR C005D
ENCODING -1 93
SWIDTH 429 0
DWIDTH 6 0
BBX 6 14 0 -4
BITMAP
00
78
08
08
08
08
08
08
08
08
08
08
08
78
ENDCHAR
STARTCHAR C005E
ENCODING -1 94
SWIDTH 500 0
DWIDTH 7 0
BBX 7 14 0 -4
BITMAP
00
00
00
00
10
38
54
10
10
10
10
00
00
00
ENDCHAR
STARTCHAR C005F
ENCODING -1 95
SWIDTH 643 0
DWIDTH 9 0
BBX 9 14 0 -4
BITMAP
0000
0000
0000
0000
1000
2000
7F00
2000
1000
0000
0000
0000
0000
0000
ENDCHAR
STARTCHAR C0060
ENCODING -1 96
SWIDTH 0 0
DWIDTH 0 0
BBX 0 14 0 -4
BITMAP
00
00
00
00
00
00
00
00
00
00
00
00
00
00
ENDCHAR
STARTCHAR C0061
ENCODING -1 97
SWIDTH 571 0
DWIDTH 8 0
BBX 8 14 0 -4
BITMAP
00
00
00
00
38
44
0C
34
44
44
3A
00
00
00
ENDCHAR
STARTCHAR C0062
ENCODING -1 98
SWIDTH 571 0
DWIDTH 8 0
BBX 8 14 0 -4
BITMAP
00
40
40
40
58
64
42
42
42
64
58
00
00
00
ENDCHAR
STARTCHAR C0063
ENCODING -1 99
SWIDTH 571 0
DWIDTH 8 0
BBX 8 14 0 -4
BITMAP
00
00
00
00
1C
22
40
40
40
22
1C
00
00
00
ENDCHAR
STARTCHAR C0064
ENCODING -1 100
SWIDTH 571 0
DWIDTH 8 0
BBX 8 14 0 -4
BITMAP
00
02
02
02
1A
26
42
42
42
26
1A
00
00
00
ENDCHAR
STARTCHAR C0065
ENCODING -1 101
SWIDTH 571 0
DWIDTH 8 0
BBX 8 14 0 -4
BITMAP
00
00
00
00
18
24
42
7E
40
22
1C
00
00
00
ENDCHAR
STARTCHAR C0066
ENCODING -1 102
SWIDTH 429 0
DWIDTH 6 0
BBX 6 14 0 -4
BITMAP
00
18
20
20
78
20
20
20
20
20
20
00
00
00
ENDCHAR
STARTCHAR C0067
ENCODING -1 103
SWIDTH 571 0
DWIDTH 8 0
BBX 8 14 0 -4
BITMAP
00
00
00
00
1A
26
42
42
42
26
1A
02
42
3C
ENDCHAR
STARTCHAR C0068
ENCODING -1 104
SWIDTH 571 0
DWIDTH 8 0
BBX 8 14 0 -4
BITMAP
00
40
40
40
5C
62
42
42
42
42
42
00
00
00
ENDCHAR
STARTCHAR C0069
ENCODING -1 105
SWIDTH 214 0
DWIDTH 3 0
BBX 3 14 0 -4
BITMAP
00
40
40
00
40
40
40
40
40
40
40
00
00
00
ENDCHAR
STARTCHAR C006A
ENCODING -1 106
SWIDTH 286 0
DWIDTH 4 0
BBX 4 14 0 -4
BITMAP
00
20
20
00
20
20
20
20
20
20
20
20
C0
00
ENDCHAR
STARTCHAR C006B
ENCODING -1 107
SWIDTH 500 0
DWIDTH 7 0
BBX 7 14 0 -4
BITMAP
00
40
40
40
44
48
70
50
48
44
42
00
00
00
ENDCHAR
STARTCHAR C006C
ENCODING -1 108
SWIDTH 214 0
DWIDTH 3 0
BBX 3 14 0 -4
BITMAP
00
40
40
40
40
40
40
40
40
40
40
00
00
00
ENDCHAR
STARTCHAR C006D
ENCODING -1 109
SWIDTH 786 0
DWIDTH 11 0
BBX 11 14 0 -4
BITMAP
0000
0000
0000
0000
5980
6640
4440
4440
4440
4440
4440
0000
0000
0000
ENDCHAR
STARTCHAR C006E
ENCODING -1 110
SWIDTH 571 0
DWIDTH 8 0
BBX 8 14 0 -4
BITMAP
00
00
00
00
5C
62
42
42
42
42
42
00
00
00
ENDCHAR
STARTCHAR C006F
ENCODING -1 111
SWIDTH 643 0
DWIDTH 9 0
BBX 9 14 0 -4
BITMAP
0000
0000
0000
0000
1C00
2200
4100
4100
4100
2200
1C00
0000
0000
0000
ENDCHAR
STARTCHAR C0070
ENCODING -1 112
SWIDTH 571 0
DWIDTH 8 0
BBX 8 14 0 -4
BITMAP
00
00
00
00
58
64
42
42
42
64
58
40
40
40
ENDCHAR
STARTCHAR C0071
ENCODING -1 113
SWIDTH 571 0
DWIDTH 8 0
BBX 8 14 0 -4
BITMAP
00
00
00
00
1A
26
42
42
42
26
1A
02
02
02
ENDCHAR
STARTCHAR C0072
ENCODING -1 114
SWIDTH 429 0
DWIDTH 6 0
BBX 6 14 0 -4
BITMAP
00
00
00
00
58
60
40
40
40
40
40
00
00
00
ENDCHAR
STARTCHAR C0073
ENCODING -1 115
SWIDTH 571 0
DWIDTH 8 0
BBX 8 14 0 -4
BITMAP
00
00
00
00
3C
42
40
3C
02
42
3C
00
00
00
ENDCHAR
STARTCHAR C0074
ENCODING -1 116
SWIDTH 429 0
DWIDTH 6 0
BBX 6 14 0 -4
BITMAP
00
00
20
20
78
20
20
20
20
20
18
00
00
00
ENDCHAR
STARTCHAR C0075
ENCODING -1 117
SWIDTH 571 0
DWIDTH 8 0
BBX 8 14 0 -4
BITMAP
00
00
00
00
42
42
42
42
42
46
3A
00
00
00
ENDCHAR
STARTCHAR C0076
ENCODING -1 118
SWIDTH 643 0
DWIDTH 9 0
BBX 9 14 0 -4
BITMAP
0000
0000
0000
0000
4100
4100
2200
2200
1400
1400
0800
0000
0000
0000
ENDCHAR
STARTCHAR C0077
ENCODING -1 119
SWIDTH 786 0
DWIDTH 11 0
BBX 11 14 0 -4
BITMAP
0000
0000
0000
0000
4440
4440
2A80
2A80
2A80
1100
1100
0000
0000
0000
ENDCHAR
STARTCHAR C0078
ENCODING -1 120
SWIDTH 500 0
DWIDTH 7 0
BBX 7 14 0 -4
BITMAP
00
00
00
00
44
44
28
10
28
44
44
00
00
00
ENDCHAR
STARTCHAR C0079
ENCODING -1 121
SWIDTH 643 0
DWIDTH 9 0
BBX 9 14 0 -4
BITMAP
0000
0000
0000
0000
4100
4100
2200
2200
1400
1400
0800
0800
4800
3000
ENDCHAR
STARTCHAR C007A
ENCODING -1 122
SWIDTH 500 0
DWIDTH 7 0
BBX 7 14 0 -4
BITMAP
00
00
00
00
7C
04
08
10
20
40
7C
00
00
00
ENDCHAR
STARTCHAR C007B
ENCODING -1 123
SWIDTH 571 0
DWIDTH 8 0
BBX 8 14 0 -4
BITMAP
00
0E
10
10
10
10
10
60
10
10
10
10
10
0E
ENDCHAR
STARTCHAR C007C
ENCODING -1 124
SWIDTH 286 0
DWIDTH 4 0
BBX 4 14 0 -4
BITMAP
00
20
20
20
20
20
20
20
20
20
20
20
20
00
ENDCHAR
STARTCHAR C007D
ENCODING -1 125
SWIDTH 571 0
DWIDTH 8 0
BBX 8 14 0 -4
BITMAP
00
70
08
08
08
08
08
06
08
08
08
08
08
70
ENDCHAR
STARTCHAR C007E
ENCODING -1 126
SWIDTH 571 0
DWIDTH 8 0
BBX 8 14 0 -4
BITMAP
00
00
00
00
00
32
4C
00
00
00
00
00
00
00
ENDCHAR
STARTCHAR C007F
ENCODING -1 127
SWIDTH 0 0
DWIDTH 0 0
BBX 0 14 0 -4
BITMAP
00
00
00
00
00
00
00
00
00
00
00
00
00
00
ENDCHAR
ENDFONT
